:SAMPLES-PER-SECOND 30
:FULLY-SPECIFIED
:DEGREES
728
root  -21.2685 38.2355 7.55323 -159.945 -78.1752 153.625
RightUpLeg  -12.3049 -1.94717 -12.4237
RightLeg  70.1523 2.12507 5.80352
RightFoot  5.01654 -0.940017 6.76795
RightToes  1.33877e-009 0 -3.6325e-017
Spine  10.2007 -0.025917 -2.06834
Spine1  9.81482 0.506466 -6.25475
HEad  -12.8748 6.98965 -6.53547
LeftShoulder1  -0.199506 4.06116 -29.593
LeftArm  -3.27944 20.2309 -37.7767
LeftForeArm  21.674 -13.6857 -6.30172
LeftHand  -0.147854 9.11494 -2.68676
RightShoulder  -0.594702 -5.22364 27.83
RightArm  10.1281 -1.28595 47.5633
RightForeArm  15.8975 8.70942 5.77939
RightHand  -0.00137715 0.677992 -0.0737627
LeftUpLeg  -9.72941 4.70433 -15.647
LeftLeg  23.5711 12.622 5.50497
LeftFoot  -11.5987 0.0936797 10.4854
LeftToes  -1.45701e-009 4.75788e-011 -4.21586e-011
729
root  -22.2499 38.4322 7.25046 -153.881 -81.626 147.373
RightUpLeg  -16.1211 -1.0483 -12.63
RightLeg  67.3896 2.02567 4.66734
RightFoot  3.20787 -0.69907 5.65079
RightToes  1.33877e-009 0 -3.6325e-017
Spine  10.6335 -0.560368 -1.58211
Spine1  9.79429 -0.254901 -5.2203
HEad  -13.1862 4.70313 -6.74147
LeftShoulder1  -0.00604034 3.52166 -29.2171
LeftArm  2.00318 16.3413 -39.2479
LeftForeArm  20.4167 -16.9865 -5.75652
LeftHand  -0.262957 11.0678 -3.62602
RightShoulder  -0.609042 -5.25362 28.0604
RightArm  9.39825 -1.13646 46.217
RightForeArm  11.3692 9.17593 5.56046
RightHand  -0.0911881 1.49241 -1.68624
LeftUpLeg  -6.72235 3.55568 -14.738
LeftLeg  22.3728 10.5758 4.21028
LeftFoot  -12.5856 0.187961 10.2936
LeftToes  -1.45701e-009 4.75788e-011 -4.21586e-011
730
root  -23.2321 38.5595 6.95067 -140.453 -84.4003 134.093
RightUpLeg  -19.6115 -0.595129 -13.243
RightLeg  62.1182 2.43563 4.47439
RightFoot  1.25831 -0.589504 5.41636
RightToes  1.33877e-009 0 -3.6325e-017
Spine  10.5318 -0.856332 -1.62352
Spine1  9.89988 -0.882092 -3.69172
HEad  -12.8193 3.06886 -5.55959
LeftShoulder1  0.144428 3.0947 -29.2127
LeftArm  8.3304 12.641 -40.043
LeftForeArm  18.6003 -21.5682 -4.48757
LeftHand  -0.0380429 7.49456 -0.317278
RightShoulder  -0.547056 -5.09418 27.6133
RightArm  8.98897 -0.749661 45.3303
RightForeArm  8.72038 9.51578 5.44734
RightHand  -0.151987 2.16018 -2.53074
LeftUpLeg  -4.45241 2.78747 -14.0582
LeftLeg  21.6586 8.41511 3.27809
LeftFoot  -13.6579 0.288342 10.1544
LeftToes  -1.45701e-009 4.75788e-011 -4.21586e-011
731
root  -24.2887 38.6699 6.64987 -115.292 -86.1569 108.517
RightUpLeg  -21.2566 -0.158722 -13.7988
RightLeg  54.2286 2.6459 3.59049
RightFoot  -0.374117 -0.551967 5.72725
RightToes  1.33877e-009 0 -3.6325e-017
Spine  10.7364 -1.08431 -1.58101
Spine1  9.92296 -1.30752 -2.61723
HEad  -12.3516 1.30658 -4.90567
LeftShoulder1  0.239477 2.82284 -29.0359
LeftArm  11.0639 9.2838 -40.0018
LeftForeArm  19.8526 -26.1387 -4.46263
LeftHand  -0.038953 7.50991 0.210375
RightShoulder  -0.569451 -5.15742 27.6697
RightArm  9.03221 0.17345 44.3027
RightForeArm  7.19141 9.62666 5.475
RightHand  -0.196011 2.47078 -3.0908
LeftUpLeg  -1.43789 2.20127 -13.3505
LeftLeg  20.7242 6.60089 2.62991
LeftFoot  -14.708 0.385401 10.0742
LeftToes  -1.45701e-009 4.75788e-011 -4.21586e-011
732
root  -25.3562 38.7262 6.3492 -78.833 -86.5743 72.1136
RightUpLeg  -22.464 0.0487249 -14.1955
RightLeg  44.2995 2.35443 2.15932
RightFoot  -1.35712 -0.578103 6.49746
RightToes  1.33877e-009 0 -3.6325e-017
Spine  10.57 -1.35428 -1.91395
Spine1  9.66603 -1.83513 -1.1554
HEad  -11.9369 0.881934 -4.60944
LeftShoulder1  0.204223 2.92513 -29.1753
LeftArm  11.3984 6.10833 -39.5188
LeftForeArm  20.7064 -29.8226 -5.33922
LeftHand  -0.00335838 6.73178 2.51223
RightShoulder  -0.559457 -5.12814 27.6616
RightArm  8.62692 1.32175 43.8448
RightForeArm  7.0407 9.3489 5.3945
RightHand  -0.23285 3.06787 -3.42448
LeftUpLeg  0.722735 1.87354 -12.613
LeftLeg  20.346 4.73301 2.18653
LeftFoot  -15.963 0.498098 9.9313
LeftToes  -1.45701e-009 4.75788e-011 -4.21586e-011
733
root  -26.4497 38.7328 6.07006 -55.286 -85.777 48.5633
RightUpLeg  -22.8007 0.0812736 -14.5647
RightLeg  32.9989 2.17926 1.31146
RightFoot  -1.73545 -0.563553 6.55392
RightToes  1.33877e-009 0 -3.6325e-017
Spine  10.4712 -1.42907 -2.07311
Spine1  9.40972 -2.0109 -0.0772014
HEad  -11.366 -0.0821401 -4.03462
LeftShoulder1  0.289224 2.67953 -28.9507
LeftArm  10.4309 3.43032 -39.4354
LeftForeArm  20.323 -32.3828 -5.98657
LeftHand  -0.0212283 5.52735 3.39124
RightShoulder  -0.522003 -5.02939 27.4081
RightArm  7.84871 2.14062 43.8035
RightForeArm  7.77283 9.30717 5.12482
RightHand  -0.181948 2.58111 -2.8625
LeftUpLeg  2.90925 1.50842 -12.094
LeftLeg  19.9601 3.60123 1.94372
LeftFoot  -17.1893 0.610665 9.89235
LeftToes  -1.45701e-009 4.75788e-011 -4.21586e-011
734
root  -27.6125 38.6839 5.81308 -45.1612 -84.8615 38.5377
RightUpLeg  -22.4189 -1.01398 -14.3898
RightLeg  20.9741 2.50265 0.764948
RightFoot  -1.89303 -0.581777 6.88682
RightToes  1.33877e-009 0 -3.6325e-017
Spine  10.5344 -1.53187 -1.662
Spine1  8.77573 -1.97155 0.12683
HEad  -10.7034 -0.715193 -3.76925
LeftShoulder1  0.277391 2.70722 -28.699
LeftArm  9.06819 1.26715 -39.5624
LeftForeArm  19.5265 -34.4906 -6.57066
LeftHand  -0.0170379 5.60722 4.85808
RightShoulder  -0.560522 -5.14662 27.3443
RightArm  7.82986 2.64341 43.7974
RightForeArm  6.66925 9.76085 5.11753
RightHand  -0.17582 2.19172 -2.88146
LeftUpLeg  5.03325 1.39118 -11.5768
LeftLeg  19.6118 2.58958 1.6447
LeftFoot  -18.5641 0.726176 9.72363
LeftToes  -1.45701e-009 4.75788e-011 -4.21586e-011
735
root  -28.8499 38.5434 5.58259 -44.7573 -83.7996 37.9628
RightUpLeg  -21.7354 -5.27916 -13.3502
RightLeg  10.3997 5.22901 0.239766
RightFoot  -3.09616 -0.629012 8.44021
RightToes  1.33877e-009 0 -3.6325e-017
Spine  9.7037 -1.65304 -1.37398
Spine1  9.74225 -1.85798 -0.356311
HEad  -10.5757 -1.71864 -3.33276
LeftShoulder1  0.318715 2.58191 -28.421
LeftArm  7.54285 -1.50498 -39.8082
LeftForeArm  18.4223 -35.3148 -6.86107
LeftHand  -0.0504219 4.76562 5.69924
RightShoulder  -0.575197 -5.1762 27.6316
RightArm  7.6016 3.50557 44.0601
RightForeArm  6.33712 10.2507 5.01633
RightHand  -0.175286 2.54587 -2.76056
LeftUpLeg  7.65963 1.06862 -11.7404
LeftLeg  19.0942 2.22071 1.56801
LeftFoot  -20.1257 0.812509 8.97772
LeftToes  -1.45701e-009 4.75788e-011 -4.21586e-011
736
root  -30.1434 38.3378 5.3439 -42.9569 -82.8505 36.021
RightUpLeg  -21.4117 -11.0139 -11.1202
RightLeg  2.90151 8.26058 -0.738928
RightFoot  -3.95506 -0.668071 9.88487
RightToes  1.33877e-009 0 -3.6325e-017
Spine  9.23455 -1.71476 -1.44524
Spine1  10.3368 -2.00388 0.130774
HEad  -10.8346 -2.10873 -3.77359
LeftShoulder1  0.369224 2.44293 -28.6827
LeftArm  5.43365 -3.07556 -39.8132
LeftForeArm  19.3998 -36.8562 -7.22738
LeftHand  -0.0610565 4.54967 5.80314
RightShoulder  -0.557006 -5.12605 27.5582
RightArm  7.93012 3.82144 44.3586
RightForeArm  5.47766 11.3892 5.0021
RightHand  -0.223108 3.14796 -3.27495
LeftUpLeg  10.135 0.786887 -11.5652
LeftLeg  19.0193 1.59749 1.31512
LeftFoot  -21.8872 0.930319 8.62639
LeftToes  -1.45701e-009 4.75788e-011 -4.21586e-011
737
root  -31.5039 38.0778 5.06781 -41.988 -82.2031 34.9836
RightUpLeg  -21.5763 -11.2181 -10.7125
RightLeg  0.421648 4.97531 -0.673113
RightFoot  -4.23066 -0.560257 8.5299
RightToes  1.33877e-009 0 -3.6325e-017
Spine  9.2071 -1.84534 -1.29993
Spine1  10.2775 -2.16348 0.277428
HEad  -10.9609 -2.12176 -4.13091
LeftShoulder1  0.399396 2.35362 -28.6015
LeftArm  3.22923 -3.64725 -40.2305
LeftForeArm  20.4989 -38.1229 -7.52086
LeftHand  -0.0501944 4.82885 6.16085
RightShoulder  -0.549995 -5.09873 27.6892
RightArm  8.66127 4.2089 44.6196
RightForeArm  5.47944 12.3221 5.04654
RightHand  -0.205888 3.67873 -2.8897
LeftUpLeg  12.4307 0.371143 -11.2783
LeftLeg  19.297 1.60482 1.28407
LeftFoot  -23.611 1.03507 8.29908
LeftToes  -1.45701e-009 4.75788e-011 -4.21586e-011
738
root  -32.9674 37.7321 4.77775 -40.7062 -81.3777 33.6686
RightUpLeg  -22.1973 -11.2615 -10.4914
RightLeg  3.07441 2.23915 -0.268432
RightFoot  -4.67236 -0.460706 7.16479
RightToes  1.33877e-009 0 -3.6325e-017
Spine  9.15508 -2.0331 -1.4999
Spine1  10.2441 -2.56668 0.899819
HEad  -11.4569 -2.29394 -4.85818
LeftShoulder1  0.367072 2.46925 -29.3573
LeftArm  2.052 -4.38096 -40.1954
LeftForeArm  20.7393 -38.5102 -7.61999
LeftHand  -0.0756855 4.36944 6.57953
RightShoulder  -0.5068 -4.99504 27.1618
RightArm  9.02896 4.05562 45.4574
RightForeArm  5.50794 13.3795 4.9432
RightHand  -0.209719 3.86446 -2.8924
LeftUpLeg  14.6151 -0.223984 -10.9616
LeftLeg  20.2091 1.65123 1.16055
LeftFoot  -25.6875 1.09887 7.48981
LeftToes  -1.45701e-009 4.75788e-011 -4.21586e-011
739
root  -34.5083 37.4339 4.50746 -36.0739 -80.5072 29.339
RightUpLeg  -23.2001 -11.726 -9.87708
RightLeg  8.04117 1.01188 0.223875
RightFoot  -2.31988 -0.364099 5.32379
RightToes  1.33877e-009 0 -3.6325e-017
Spine  8.58354 -2.46907 -0.793833
Spine1  10.3628 -3.07831 1.09837
HEad  -11.5798 -2.021 -5.4922
LeftShoulder1  0.337926 2.56428 -29.8692
LeftArm  1.42735 -4.55162 -40.2312
LeftForeArm  19.9139 -38.687 -7.72471
LeftHand  -0.091047 4.11381 6.75759
RightShoulder  -0.514971 -5.01587 27.2391
RightArm  9.63231 4.01474 45.8286
RightForeArm  6.50594 13.9854 4.92148
RightHand  -0.1905 3.2881 -2.79452
LeftUpLeg  16.2644 -1.02595 -10.0836
LeftLeg  21.606 1.34633 0.933282
LeftFoot  -26.9314 1.00445 6.13435
LeftToes  -1.45701e-009 4.75788e-011 -4.21586e-011
740
root  -35.9644 37.2981 4.26751 -27.8079 -80.4475 21.6126
RightUpLeg  -25.3086 -12.4463 -8.21166
RightLeg  13.1618 1.8617 0.754215
RightFoot  6.89883 -0.332063 2.0802
RightToes  1.33877e-009 0 -3.6325e-017
Spine  8.6211 -2.62214 1.68244
Spine1  9.99126 -3.2504 1.74396
HEad  -11.8235 -1.82551 -6.54548
LeftShoulder1  0.328293 2.6133 -30.7524
LeftArm  1.90255 -4.43084 -40.3382
LeftForeArm  19.6317 -38.7733 -7.76974
LeftHand  -0.0546411 4.72975 6.13465
RightShoulder  -0.530074 -5.05855 27.2942
RightArm  10.1383 4.19186 45.6505
RightForeArm  7.36612 13.4577 5.12186
RightHand  -0.166109 2.66366 -2.5769
LeftUpLeg  17.2271 -1.32313 -7.79618
LeftLeg  23.2693 -0.174326 0.251646
LeftFoot  -27.1558 0.614475 3.28117
LeftToes  -1.45701e-009 4.75788e-011 -4.21586e-011
741
root  -37.5253 36.9709 4.05351 -20.6586 -81.7003 14.3827
RightUpLeg  -27.2527 -11.8946 -6.36063
RightLeg  20.4062 3.25947 1.1212
RightFoot  8.7718 -0.791221 4.84466
RightToes  1.33877e-009 0 -3.6325e-017
Spine  9.1844 -2.72201 6.21035
Spine1  9.74715 -2.22183 -0.923127
HEad  -13.0949 -2.2316 -7.27913
LeftShoulder1  0.369825 2.50387 -30.8762
LeftArm  2.50596 -5.04724 -41.1861
LeftForeArm  19.0892 -37.4463 -7.41306
LeftHand  -0.0490041 4.79452 5.66602
RightShoulder  -0.50554 -4.98326 27.3135
RightArm  9.3086 5.80359 46.133
RightForeArm  9.50475 10.5276 5.42826
RightHand  -0.105687 1.99074 -1.81429
LeftUpLeg  17.2636 0.749139 -4.1747
LeftLeg  28.6657 -2.71559 -1.29211
LeftFoot  -27.2231 0.120633 -0.312025
LeftToes  -1.45701e-009 4.75788e-011 -4.21586e-011
742
root  -38.8951 36.7673 3.84626 -9.79612 -82.9425 3.40247
RightUpLeg  -28.8037 -12.3408 -3.75224
RightLeg  26.758 4.97651 2.46735
RightFoot  8.00124 -0.139263 1.10348
RightToes  1.33877e-009 0 -3.6325e-017
Spine  10.5023 -2.94139 9.98302
Spine1  9.96789 -1.69219 -1.615
HEad  -14.9141 -1.57022 -7.4691
LeftShoulder1  0.405179 2.40307 -30.7484
LeftArm  2.84282 -5.31328 -41.8558
LeftForeArm  17.8458 -36.3314 -7.17588
LeftHand  -0.0546587 4.61241 4.9714
RightShoulder  -0.359095 -4.56739 26.7232
RightArm  9.05449 9.28715 47.2588
RightForeArm  9.52864 5.19081 5.88596
RightHand  -0.187437 2.71379 -2.90495
LeftUpLeg  15.3217 4.60653 1.07328
LeftLeg  36.9858 -5.88916 -4.44475
LeftFoot  -23.713 -0.410128 -5.38709
LeftToes  -1.45701e-009 4.75788e-011 -4.21586e-011
